<svg height="512pt" viewBox="0 -23 512.00047 512" width="512pt" xmlns="http://www.w3.org/2000/svg"><path d="m328.847656 167.996094c0 4.84375-3.925781 8.769531-8.769531 8.769531s-8.769531-3.925781-8.769531-8.769531 3.925781-8.769532 8.769531-8.769532 8.769531 3.925782 8.769531 8.769532zm0 0"/><path d="m374.597656 144.777344c0 4.84375-3.925781 8.769531-8.765625 8.769531-4.84375 0-8.769531-3.925781-8.769531-8.769531s3.925781-8.769532 8.769531-8.769532c4.839844 0 8.765625 3.925782 8.765625 8.769532zm0 0"/><path d="m363.09375 166.839844c0 4.84375-3.925781 8.769531-8.769531 8.769531-4.839844 0-8.765625-3.925781-8.765625-8.769531s3.925781-8.769532 8.765625-8.769532c4.84375 0 8.769531 3.925782 8.769531 8.769532zm0 0"/><path d="m133.773438 126.199219c0 4.839843-3.925782 8.765625-8.769532 8.765625-4.839844 0-8.765625-3.925782-8.765625-8.765625 0-4.84375 3.925781-8.769531 8.765625-8.769531 4.84375 0 8.769532 3.925781 8.769532 8.769531zm0 0"/><path d="m184.910156 114.589844c0 4.839844-3.925781 8.765625-8.769531 8.765625s-8.769531-3.925781-8.769531-8.765625c0-4.84375 3.925781-8.769532 8.769531-8.769532s8.769531 3.925782 8.769531 8.769532zm0 0"/><path d="m156.648438 105.820312c0 4.84375-3.925782 8.769532-8.769532 8.769532-4.839844 0-8.765625-3.925782-8.765625-8.769532s3.925781-8.769531 8.765625-8.769531c4.84375 0 8.769532 3.925781 8.769532 8.769531zm0 0"/><path d="m114.046875 267.050781c0 4.839844-3.925781 8.765625-8.769531 8.765625s-8.769532-3.925781-8.769532-8.765625c0-4.84375 3.925782-8.769531 8.769532-8.769531s8.769531 3.925781 8.769531 8.769531zm0 0"/><path d="m142.539062 246.671875c0 4.84375-3.925781 8.769531-8.765624 8.769531-4.84375 0-8.769532-3.925781-8.769532-8.769531s3.925782-8.769531 8.769532-8.769531c4.839843 0 8.765624 3.925781 8.765624 8.769531zm0 0"/><path d="m156.648438 264.207031c0 4.84375-3.925782 8.769531-8.769532 8.769531-4.839844 0-8.765625-3.925781-8.765625-8.769531 0-4.839843 3.925781-8.765625 8.765625-8.765625 4.84375 0 8.769532 3.925782 8.769532 8.765625zm0 0"/><path d="m229.589844 79.964844c1.648437-.378906 3.308594-.082032 4.648437.761718.691407.429688 1.910157 1.410157 2.269531 3.136719 2.535157 12.277344 14.917969 20.113281 27.648438 17.546875 1.65625-.367187 3.304688-.082031 4.644531.761719.695313.429687 1.914063 1.410156 2.273438 3.136719 1.242187 6.042968 4.867187 11.1875 10.195312 14.496094 3.773438 2.339843 8.078125 3.542968 12.476563 3.542968 1.648437 0 3.316406-.167968 4.964844-.511718 4.742187-.980469 7.792968-5.628907 6.804687-10.371094-.984375-4.734375-5.613281-7.761719-10.363281-6.804688-1.667969.351563-3.296875.070313-4.648438-.761718-.691406-.429688-1.910156-1.410157-2.261718-3.136719-1.253907-6.042969-4.875-11.199219-10.207032-14.496094-5.179687-3.226563-11.378906-4.304687-17.4375-3.042969-3.246094.691406-6.351562-1.085937-6.929687-3.910156-1.253907-6.039062-4.875-11.195312-10.207031-14.492188-5.179688-3.21875-11.394532-4.308593-17.445313-3.042968-4.746094.980468-7.796875 5.628906-6.804687 10.371094.988281 4.738281 5.59375 7.78125 10.378906 6.816406zm0 0"/><path d="m264.277344 204.078125c-4.839844.105469-8.679688 4.121094-8.582032 8.949219.023438 1.015625-.5625 1.683594-.984374 1.691406-10.222657.230469-18.351563 9.015625-18.121094 19.597656.023437 1.015625-.5625 1.683594-.984375 1.691406-5.066407.113282-9.742188 2.289063-13.1875 6.113282-3.296875 3.679687-5.050781 8.46875-4.9375 13.492187.105469 4.769531 4.007812 8.578125 8.761719 8.578125h.199218c4.839844-.113281 8.679688-4.121094 8.566406-8.960937-.007812-.648438.335938-1.667969.984376-1.675781 10.222656-.226563 18.359374-9.023438 18.132812-19.605469-.027344-1.015625.5625-1.675781.972656-1.683594 10.226563-.230469 18.363282-9.023437 18.132813-19.605469-.105469-4.839844-3.875-8.320312-8.953125-8.582031zm0 0"/><path d="m201.460938 172.074219c-1.332032 3.023437-4.566407 4.53125-7.199219 3.375-5.644531-2.480469-11.941407-2.527344-17.71875-.097657-5.621094 2.359376-10.09375 6.78125-12.589844 12.460938-1.949219 4.429688.058594 9.609375 4.496094 11.546875 1.148437.511719 2.351562.746094 3.527343.746094 3.363282 0 6.582032-1.957031 8.027344-5.242188.6875-1.542969 1.863282-2.734375 3.316406-3.351562.753907-.3125 2.261719-.726563 3.875-.023438 11.488282 5.074219 25.085938-.484375 30.320313-12.355469.683594-1.542968 1.859375-2.734374 3.316406-3.351562.753907-.3125 2.257813-.726562 3.875-.023438 5.644531 2.480469 11.941407 2.523438 17.71875.09375 5.621094-2.359374 10.09375-6.777343 12.589844-12.457031 1.949219-4.429687-.058594-9.609375-4.496094-11.550781-4.4375-1.960938-9.601562.054688-11.554687 4.5-.6875 1.542969-1.863282 2.734375-3.316406 3.347656-.746094.316406-2.253907.71875-3.875.027344-5.664063-2.480469-11.949219-2.523438-17.730469-.097656-5.628907 2.359375-10.089844 6.777344-12.582031 12.453125zm0 0"/><path d="m504.261719 141.875c-.0625-.164062-.191407-.269531-.261719-.4375-2.417969-9.695312-5.515625-18.796875-9.285156-27.277344-.121094-.410156-.367188-.78125-.554688-1.183594-20.078125-44.070312-57.605468-72.074218-102.890625-89.109374-.28125-.140626-.484375-.371094-.789062-.484376-.210938-.070312-.421875-.035156-.632813-.085937-19.332031-7.148437-40.035156-12.335937-61.332031-15.984375-.054687-.019531-.082031-.0625-.132813-.082031-1.140624-.402344-2.316406-.550781-3.457031-.472657-43.761719-7.117187-89.792969-7.855468-131.6875-5.671874-.113281 0-.203125-.0625-.316406-.0625-.183594 0-.339844.097656-.535156.105468-37.578125 1.988282-71.765625 6.269532-97.71875 10.347656-22.464844 3.542969-39.335938 21.640626-41.585938 44.15625v.027344c-.042969.457032-.175781.867188-.210937 1.3125l-13.171875 168.316406c-15.96875 10.175782-49.652344 37.761719-36.863281 82.972657 4.515624 15.941406 11.890624 25.3125 21.929687 27.828125 1.835937.464844 4.824219 1.988281 4.382813 4.777344-3.382813 21.464843-9.132813 61.070312-9.5625 85.167968-.214844 11.597656 3.601562 21.332032 11.027343 28.117188 10.523438 9.628906 25.324219 11.066406 33.160157 11.066406 2.753906 0 4.660156-.183594 5.210937-.234375 3.09375-.203125 30.460937-2.554687 39.488281-21.457031 5.5-11.503906 2.605469-25.53125-8.523437-41.660156l143.761719-58.28125c.027343.019531.0625.019531.089843.035156 1.710938.90625 3.542969 1.613281 5.433594 2.191406.300781.097656.570313.246094.878906.335938 2.191407.605468 4.488281 1.007812 6.898438 1.175781 2 .121093 3.964843.121093 5.894531.035156.429688-.019531.859375-.078125 1.296875-.105469 1.640625-.113281 3.246094-.300781 4.8125-.570312.394531-.070313.789063-.140625 1.183594-.21875 1.851562-.359375 3.648437-.824219 5.378906-1.394532.113281-.035156.234375-.070312.347656-.105468 6.410157-2.175782 11.960938-5.726563 16.117188-10.582032 1.578125-1.839843 2.882812-3.902343 4.078125-6.058593.035156-.054688.0625-.113281.085937-.175781 1.160157-2.121094 2.125-4.410157 2.902344-6.839844.027344-.078125.0625-.132813.089844-.210938l164.65625-66.769531c1.097656-.367187 27.152343-9.417969 40.5-36.808594 10.226562-20.964843 10.191406-46.402343-.09375-75.644531zm-21.972657 17.929688c-3.050781-6.679688-6.375-13.257813-9.949218-19.726563l10.378906-8.882813c2.492188 6.902344 4.578125 14.160157 6.121094 21.878907 1.542968 7.703125.210937 15.429687-3.296875 21.953125.113281-4.796875-.808594-9.878906-3.253907-15.222656zm-6.882812-45.417969-12.257812 10.488281c-6.550782-9.917969-14.046876-19.414062-22.789063-28.285156l10.679687-15.503906c9.609376 9.679687 17.84375 20.71875 24.367188 33.300781zm-88.628906-55.046875 5.867187-16.183594c16.597657 6.933594 31.851563 15.554688 45.207031 26.144531l-10.53125 15.292969c-11.46875-9.46875-24.875-17.957031-40.542968-25.253906zm-60.597656-19.140625 5.140624-14.738281c15.511719 2.882812 30.597657 6.648437 44.917969 11.496093l-5.636719 15.5625c-13.230468-4.945312-28.015624-9.066406-44.421874-12.320312zm-63.101563-7.347657v-14.84375c16.964844.738282 33.984375 2.191407 50.679687 4.570313l-5.097656 14.625c-14.042968-2.078125-29.179687-3.5625-45.582031-4.351563zm-28.261719-15.457031c3.558594 0 7.136719.027344 10.726563.085938v14.792969c-13.769531-.246094-28.402344-.007813-43.84375.675781v-14.757813c10.847656-.480468 21.894531-.796875 33.117187-.796875zm-103.261718 21.359375v-14.6875c16.105468-1.964844 33.835937-3.707031 52.609374-4.929687v14.742187c-16.554687 1.078125-34.117187 2.71875-52.609374 4.875zm-34.152344-9.941406c5.179687-.816406 10.792968-1.640625 16.617187-2.457031v14.519531c-13.011719 1.710938-26.65625 3.761719-40.640625 6.015625 4.417969-9.441406 13.210938-16.378906 24.023438-18.078125zm-4.734375 407.121094c-3.917969 8.25-19.667969 11.171875-25.207031 11.574218-4.199219.480469-17.835938.269532-25.015626-6.296874-3.699218-3.394532-5.453124-8.25-5.324218-14.863282.414062-23.035156 6.035156-61.726562 9.355468-82.742187 1.773438-11.234375-5.558593-21.542969-17.429687-24.527344-3.316406-.832031-6.796875-6.664063-9.320313-15.597656-10.269531-36.28125 19.464844-57.835938 32.722657-65.417969l4.023437-2.308594 13.34375-170.539062c46.359375-7.664063 87.078125-12.355469 122.84375-14.476563.09375 0 .175782.054688.269532.054688.160156 0 .289062-.082031.449218-.089844 47.328125-2.769531 86.03125-1.085937 117.941406 3.964844.164063.070312.269532.203125.445313.261719.957031.332031 1.929687.492187 2.882813.492187.28125 0 .542968-.097656.824218-.132813 21.40625 3.648438 39.589844 8.875 55.285156 15.265626.664063.488281 1.324219 1.007812 2.148438 1.308593.585938.210938 1.183594.226563 1.78125.304688 19.3125 8.339843 34.605469 18.542969 47.039062 29.933593.613282.964844 1.421876 1.824219 2.421876 2.515626.199218.140624.417968.1875.628906.308593 19.449218 18.789063 31.652344 40.5 41.5625 62.167969 7.742187 16.914062-14.597656 29.539062-17.148438 30.90625l-166.195312 69.101562-1.078125 4.269532c-1.164063 4.648437-1.199219 9.664062-.113281 14.503906 2.339843 10.363281 2.859374 19.078125 1.660156 25.925781l-.203125.992188c-1.550781 7.425781-5.261719 11.773437-9.769531 14.238281-4.425782 2.316406-9.40625 2.808594-12.84375 2.816406-.824219-.011718-1.648438 0-2.449219-.0625-1.542969-.105468-2.933594-.402344-4.226563-.851562-.121094-.042969-.242187-.085938-.367187-.132813-1.269531-.480469-2.4375-1.113281-3.480469-1.945312l-.613281-.492188c-.5-.453125-1-.902343-1.445313-1.453125-5.09375-6.269531-6.136718-18.351562-4.945312-26.910156l2.105468-15.1875-142.632812 59.308594c-16.335938 6.347656-25.957031 14.96875-29.402344 26.355468-3.65625 12.109376.238282 26.09375 11.925782 42.730469 5.261718 7.476563 10.820312 17.824219 7.550781 24.726563zm-2.675781-62.367188c1.753906-5.804687 8.136718-10.882812 19.160156-15.160156l116.214844-48.320312c.453124 6.1875 1.839843 13.386718 5.214843 19.894531l-139.210937 56.4375c-1.894532-5.03125-2.4375-9.363281-1.378906-12.851563zm398.722656-163.992187c-10.011719 20.796875-30.292969 28.050781-30.941406 28.296875l-156.242188 63.339844c-.226562-5.910157-1.035156-12.257813-2.605469-19.175782-.183593-.808594-.296875-1.613281-.339843-2.402344l177.765624-73.90625c6.753907-2.808593 12.46875-7.113281 17.195313-12.242187-.886719 5.726563-2.4375 11.128906-4.832031 16.089844zm0 0"/><path d="m123.164062 300.34375c37.070313 0 67.222657-24.007812 67.222657-53.523438 0-17.941406-8.785157-25.933593-16.164063-29.488281-8.207031-3.945312-17.433594-3.945312-24.753906-3.945312-13.792969 0-84.761719 17.738281-84.761719 50.972656 0 35.984375 27.089844 35.984375 58.457031 35.984375zm26.375-69.417969h.105469c5.539063 0 12.394531.015625 16.972657 2.21875 1.867187.902344 6.234374 2.996094 6.234374 13.6875 0 19.507813-22.753906 35.984375-49.6875 35.984375-40.921874 0-40.921874-3.902344-40.921874-18.449218 0-15.609376 53.765624-33.441407 67.296874-33.441407zm0 0"/><path d="m143.496094 158.070312c37.070312 0 67.226562-24.007812 67.226562-53.519531 0-17.941406-8.785156-25.9375-16.167968-29.488281-8.171876-3.929688-17.640626-3.945312-24.65625-3.945312-.035157 0-.0625 0-.097657 0-13.792969 0-84.761719 17.738281-84.761719 50.96875 0 35.984374 27.09375 35.984374 58.457032 35.984374zm26.375-69.417968h.105468c5.542969 0 12.398438.019531 16.976563 2.21875 1.867187.902344 6.230469 3 6.230469 13.6875 0 19.507812-22.75 35.984375-49.6875 35.984375-40.921875 0-40.921875-3.902344-40.921875-18.449219 0-15.605469 53.769531-33.441406 67.296875-33.441406zm0 0"/><path d="m280.613281 165.574219c0 35.976562 27.085938 35.976562 58.457031 35.976562 37.070313 0 67.226563-24 67.226563-53.511719 0-17.949218-8.796875-25.945312-16.167969-29.488281-8.179687-3.9375-17.648437-3.953125-24.65625-3.953125-.035156 0-.0625 0-.097656 0-13.800781-.007812-84.761719 17.738282-84.761719 50.976563zm84.8125-33.449219h.105469c5.542969 0 12.40625.019531 16.992188 2.21875 1.867187.902344 6.234374 3.007812 6.234374 13.695312 0 19.5-22.753906 35.976563-49.6875 35.976563-40.921874 0-40.921874-3.902344-40.921874-18.441406 0-15.613281 53.765624-33.449219 67.277343-33.449219zm0 0"/></svg>